<svg width="39" height="39" viewBox="0 0 39 39" fill="none" xmlns="http://www.w3.org/2000/svg">
<path d="M28.5671 15.7788C26.2518 15.1463 23.7844 15.3901 21.6376 16.4635C19.4908 17.5369 17.8154 19.3645 16.9321 21.5963M28.5671 15.7788C29.9853 16.1666 31.2975 16.8701 32.4053 17.8367C33.5132 18.8033 34.3881 20.008 34.9646 21.3605C35.5411 22.713 35.8042 24.1784 35.7343 25.647C35.6644 27.1156 35.2633 28.5494 34.561 29.8411C33.8586 31.1327 32.8732 32.2488 31.6786 33.1058C30.4839 33.9628 29.1109 34.5386 27.6623 34.7899C26.2137 35.0413 24.727 34.9618 23.3134 34.5574C21.8999 34.1529 20.5961 33.4341 19.4996 32.4545M28.5671 15.7788C29.1515 14.3001 29.3655 12.701 29.1903 11.1207C29.0151 9.54048 28.4561 8.02704 27.562 6.71231C26.6679 5.39757 25.4659 4.32143 24.0606 3.57766C22.6554 2.83389 21.0896 2.44507 19.4996 2.44507C17.9097 2.44507 16.3439 2.83389 14.9386 3.57766C13.5334 4.32143 12.3313 5.39757 11.4373 6.71231C10.5432 8.02704 9.98419 9.54048 9.809 11.1207C9.63381 12.701 9.84773 14.3001 10.4321 15.7788M16.9321 21.5963C16.4802 22.7396 16.2487 23.9581 16.2496 25.1875C16.2496 28.0751 17.5058 30.6703 19.4996 32.4545M16.9321 21.5963C15.4719 21.1967 14.1246 20.4632 12.9965 19.4536C11.8685 18.4439 10.9906 17.1859 10.4321 15.7788M19.4996 32.4545C18.4032 33.4341 17.0994 34.1529 15.6859 34.5574C14.2723 34.9618 12.7856 35.0413 11.337 34.7899C9.88836 34.5386 8.51535 33.9628 7.32069 33.1058C6.12603 32.2488 5.14065 31.1327 4.43831 29.8411C3.73596 28.5494 3.33483 27.1156 3.26493 25.647C3.19503 24.1784 3.45818 22.713 4.03467 21.3605C4.61116 20.008 5.48608 18.8033 6.59394 17.8367C7.70181 16.8701 9.01393 16.1666 10.4321 15.7788" stroke="white" stroke-width="2.4375" stroke-linecap="round" stroke-linejoin="round"/>
</svg>
