<svg width="40" height="41" viewBox="0 0 40 41" fill="none" xmlns="http://www.w3.org/2000/svg">
<path d="M25.4766 18.6172L21.7656 24.5156C21.6138 24.7261 21.4292 24.9107 21.2188 25.0625C20.7108 25.4169 20.0836 25.5566 19.4732 25.4514C18.8629 25.3462 18.3187 25.0045 17.9587 24.5005C17.5987 23.9965 17.452 23.3709 17.5504 22.7594C17.6488 22.148 17.9844 21.6 18.4844 21.2344L24.3828 17.5235C24.5169 17.43 24.6764 17.3799 24.8399 17.3799C25.0033 17.3799 25.1628 17.43 25.2969 17.5235C25.4653 17.645 25.5787 17.8283 25.6124 18.0333C25.646 18.2382 25.5972 18.4481 25.4766 18.6172Z" fill="#F2EEEE"/>
<path d="M20 5.5C10.336 5.5 2.50002 13.3281 2.50002 22.9922C2.49409 27.2679 4.05942 31.3967 6.89845 34.5937C6.98439 34.6875 7.06252 34.7812 7.14845 34.8672C7.33333 35.0673 7.55775 35.2269 7.80751 35.3358C8.05727 35.4447 8.32692 35.5006 8.59939 35.4998C8.87186 35.4991 9.1412 35.4418 9.39037 35.3316C9.63954 35.2213 9.8631 35.0605 10.0469 34.8594C11.3137 33.4827 12.8523 32.3838 14.5655 31.6321C16.2787 30.8804 18.1292 30.4923 20 30.4923C21.8709 30.4923 23.7213 30.8804 25.4345 31.6321C27.1477 32.3838 28.6863 33.4827 29.9531 34.8594C30.1369 35.0605 30.3605 35.2213 30.6097 35.3316C30.8588 35.4418 31.1282 35.4991 31.4006 35.4998C31.6731 35.5006 31.9428 35.4447 32.1925 35.3358C32.4423 35.2269 32.6667 35.0673 32.8516 34.8672L33.1016 34.5937C35.9406 31.3967 37.5059 27.2679 37.5 22.9922C37.5 13.3281 29.6641 5.5 20 5.5Z" stroke="#F2EEEE" stroke-width="2" stroke-linecap="round" stroke-linejoin="round"/>
<path d="M20 10.5V13M32.5 23H30M10 23H7.5M12.9289 15.9289L11.1609 14.1609M27.0711 15.9289L28.8391 14.1609" stroke="#F2EEEE" stroke-width="2" stroke-miterlimit="10" stroke-linecap="round"/>
</svg>
