<svg width="40" height="41" viewBox="0 0 40 41" fill="none" xmlns="http://www.w3.org/2000/svg">
<path d="M23.3333 5.94831C23.3333 4.77998 22.3866 3.83331 21.2183 3.83331H18.7833C17.6133 3.83331 16.6666 4.77998 16.6666 5.94831C16.6666 6.91165 16.0066 7.73831 15.1083 8.09165C14.966 8.14942 14.8255 8.20831 14.6866 8.26831C13.8016 8.65165 12.7499 8.53498 12.0666 7.85331C11.6698 7.45741 11.1321 7.23506 10.5716 7.23506C10.011 7.23506 9.4734 7.45741 9.07659 7.85331L7.35325 9.57665C6.95735 9.97346 6.735 10.5111 6.735 11.0716C6.735 11.6322 6.95735 12.1698 7.35325 12.5666C8.03659 13.25 8.15325 14.3 7.76659 15.1866C7.70585 15.3262 7.64751 15.4668 7.59159 15.6083C7.23825 16.5066 6.41159 17.1666 5.44825 17.1666C4.27992 17.1666 3.33325 18.1133 3.33325 19.2816V21.7183C3.33325 22.8866 4.27992 23.8333 5.44825 23.8333C6.41159 23.8333 7.23825 24.4933 7.59159 25.3916C7.64936 25.5339 7.7077 25.6744 7.76659 25.8133C8.15159 26.6983 8.03492 27.75 7.35325 28.4333C6.95735 28.8301 6.735 29.3678 6.735 29.9283C6.735 30.4889 6.95735 31.0265 7.35325 31.4233L9.07659 33.1466C9.4734 33.5426 10.011 33.7649 10.5716 33.7649C11.1321 33.7649 11.6698 33.5426 12.0666 33.1466C12.7499 32.4633 13.7999 32.3466 14.6866 32.7316C14.8255 32.7928 14.966 32.8516 15.1083 32.9083C16.0066 33.2616 16.6666 34.0883 16.6666 35.0516C16.6666 36.22 17.6133 37.1666 18.7816 37.1666H21.2183C22.3866 37.1666 23.3333 36.22 23.3333 35.0516C23.3333 34.0883 23.9933 33.2616 24.8916 32.9066C25.0338 32.8511 25.1744 32.7933 25.3133 32.7333C26.1983 32.3466 27.2499 32.465 27.9316 33.1466C28.3285 33.5431 28.8665 33.7657 29.4274 33.7657C29.9884 33.7657 30.5264 33.5431 30.9233 33.1466L32.6466 31.4233C33.0425 31.0265 33.2648 30.4889 33.2648 29.9283C33.2648 29.3678 33.0425 28.8301 32.6466 28.4333C31.9633 27.75 31.8466 26.7 32.2316 25.8133C32.2927 25.6744 32.3516 25.5339 32.4083 25.3916C32.7616 24.4933 33.5883 23.8333 34.5516 23.8333C35.7199 23.8333 36.6666 22.8866 36.6666 21.7183V19.2833C36.6666 18.115 35.7199 17.1683 34.5516 17.1683C33.5883 17.1683 32.7616 16.5083 32.4066 15.61C32.3507 15.4684 32.2923 15.3279 32.2316 15.1883C31.8483 14.3033 31.9649 13.2516 32.6466 12.5683C33.0425 12.1715 33.2648 11.6339 33.2648 11.0733C33.2648 10.5128 33.0425 9.97513 32.6466 9.57831L30.9233 7.85498C30.5264 7.45907 29.9888 7.23673 29.4283 7.23673C28.8677 7.23673 28.3301 7.45907 27.9333 7.85498C27.2499 8.53831 26.1999 8.65498 25.3133 8.26998C25.1737 8.20869 25.0331 8.14979 24.8916 8.09331C23.9933 7.73831 23.3333 6.90998 23.3333 5.94831Z" stroke="#F2EEEE" stroke-width="2.66667"/>
<path d="M26.6666 20.5C26.6666 22.2681 25.9642 23.9638 24.714 25.214C23.4637 26.4643 21.768 27.1666 19.9999 27.1666C18.2318 27.1666 16.5361 26.4643 15.2859 25.214C14.0356 23.9638 13.3333 22.2681 13.3333 20.5C13.3333 18.7319 14.0356 17.0362 15.2859 15.7859C16.5361 14.5357 18.2318 13.8333 19.9999 13.8333C21.768 13.8333 23.4637 14.5357 24.714 15.7859C25.9642 17.0362 26.6666 18.7319 26.6666 20.5Z" stroke="#F2EEEE" stroke-width="2.66667"/>
</svg>
