<svg width="40" height="41" viewBox="0 0 40 41" fill="none" xmlns="http://www.w3.org/2000/svg">
<path d="M20 5.5C20.4248 5.50047 20.8334 5.66313 21.1423 5.95475C21.4512 6.24636 21.6371 6.64492 21.662 7.06899C21.6868 7.49306 21.5489 7.91063 21.2762 8.23639C21.0036 8.56214 20.6168 8.77149 20.195 8.82167L20 8.83333H18.3333V10.5H22.94C23.3533 10.5 23.7631 10.5768 24.1483 10.7267L24.4317 10.8517L29.8233 13.5483C30.3366 13.8046 30.775 14.189 31.0962 14.6644C31.4173 15.1397 31.6104 15.6899 31.6567 16.2617L31.6667 16.53V20.5H33.3333V18.8333C33.3338 18.4085 33.4965 17.9999 33.7881 17.6911C34.0797 17.3822 34.4783 17.1963 34.9023 17.1714C35.3264 17.1465 35.744 17.2845 36.0697 17.5571C36.3955 17.8298 36.6048 18.2165 36.655 18.6383L36.6667 18.8333V25.5C36.6662 25.9248 36.5035 26.3334 36.2119 26.6423C35.9203 26.9512 35.5217 27.1371 35.0977 27.162C34.6736 27.1868 34.256 27.0489 33.9303 26.7762C33.6045 26.5036 33.3952 26.1168 33.345 25.695L33.3333 25.5V23.8333H31.6667V26.3333C31.6667 26.8029 31.5675 27.2671 31.3757 27.6956C31.1838 28.1241 30.9036 28.5073 30.5533 28.82L30.3333 29L24.7783 33.1667C24.285 33.5363 23.6988 33.7619 23.085 33.8183L22.7783 33.8333H8.33333C7.49237 33.8336 6.68239 33.516 6.06575 32.9442C5.44912 32.3724 5.07141 31.5886 5.00833 30.75L5 30.5V13.8333C4.99973 12.9924 5.31734 12.1824 5.88916 11.5658C6.46098 10.9491 7.24474 10.5714 8.08333 10.5083L8.33333 10.5H15V8.83333H13.3333C12.9085 8.83286 12.4999 8.6702 12.1911 8.37859C11.8822 8.08697 11.6963 7.68841 11.6714 7.26434C11.6465 6.84027 11.7845 6.4227 12.0571 6.09695C12.3298 5.77119 12.7165 5.56184 13.1383 5.51167L13.3333 5.5H20ZM22.94 13.8333H8.33333V30.5H22.7783L28.3333 26.3333V16.53L22.94 13.8333ZM16.0717 17.1433C16.291 16.78 16.6406 16.5141 17.0492 16.3997C17.4579 16.2853 17.8948 16.3311 18.2708 16.5277C18.6468 16.7243 18.9337 17.057 19.0729 17.4579C19.2122 17.8587 19.1932 18.2976 19.02 18.685L18.9283 18.8583L17.945 20.5H19.97C21.2133 20.5 22.005 21.7883 21.5033 22.8783L21.4133 23.05L18.93 27.1917C18.7133 27.5606 18.363 27.8321 17.9517 27.9498C17.5403 28.0676 17.0994 28.0227 16.7203 27.8243C16.3412 27.626 16.0529 27.2894 15.915 26.8844C15.7772 26.4793 15.8005 26.0367 15.98 25.6483L16.0717 25.475L17.055 23.8333H15.0317C14.7501 23.8334 14.4731 23.7628 14.2259 23.6281C13.9787 23.4933 13.7693 23.2987 13.6167 23.0621C13.4642 22.8255 13.3734 22.5544 13.3527 22.2736C13.332 21.9929 13.3821 21.7114 13.4983 21.455L13.5883 21.2833L16.0717 17.1433Z" fill="#F2EEEE"/>
</svg>
