<svg width="40" height="41" viewBox="0 0 40 41" fill="none" xmlns="http://www.w3.org/2000/svg">
<path d="M22 8.5C23.8701 8.50048 25.7143 8.93805 27.3853 9.77781C29.0563 10.6176 30.5079 11.8362 31.6243 13.3366C32.7407 14.837 33.4909 16.5775 33.8152 18.4194C34.1394 20.2612 34.0287 22.1533 33.4919 23.9447C32.955 25.7362 32.0069 27.3773 30.7232 28.7373C29.4394 30.0972 27.8556 31.1383 26.0981 31.7774C24.3405 32.4166 22.4579 32.6361 20.6005 32.4185C18.7431 32.2008 16.9622 31.5521 15.4 30.524V30.5H15.364C13.2156 29.0749 11.5832 26.9958 10.7087 24.5705C9.8342 22.1453 9.764 19.5028 10.5085 17.0346C11.253 14.5663 12.7727 12.4035 14.8424 10.8663C16.9121 9.32913 19.4219 8.49941 22 8.5ZM10.51 28.5C11.0127 29.22 11.5767 29.8867 12.202 30.5H3C2.73478 30.5 2.48043 30.6054 2.29289 30.7929C2.10536 30.9804 2 31.2348 2 31.5C2 31.7652 2.10536 32.0196 2.29289 32.2071C2.48043 32.3946 2.73478 32.5 3 32.5H14.784C16.9082 33.7765 19.3333 34.4663 21.8113 34.4988C24.2894 34.5313 26.7317 33.9055 28.8887 32.6851C31.0458 31.4648 32.8402 29.6938 34.0887 27.553C35.3372 25.4122 35.9951 22.9783 35.9951 20.5C35.9951 18.0217 35.3372 15.5878 34.0887 13.447C32.8402 11.3062 31.0458 9.53517 28.8887 8.31486C26.7317 7.09454 24.2894 6.46868 21.8113 6.50121C19.3333 6.53373 16.9082 7.22349 14.784 8.5H5C4.73478 8.5 4.48043 8.60536 4.29289 8.79289C4.10536 8.98043 4 9.23478 4 9.5C4 9.76522 4.10536 10.0196 4.29289 10.2071C4.48043 10.3946 4.73478 10.5 5 10.5H12.202C10.8698 11.8022 9.8117 13.3578 9.09004 15.0752C8.36838 16.7926 7.99775 18.6371 8 20.5C8 22.648 8.484 24.68 9.348 26.5H7C6.73478 26.5 6.48043 26.6054 6.29289 26.7929C6.10536 26.9804 6 27.2348 6 27.5C6 27.7652 6.10536 28.0196 6.29289 28.2071C6.48043 28.3946 6.73478 28.5 7 28.5H10.51ZM16.394 16.308C15.489 17.5182 15 18.9888 15 20.5C15 22.072 15.52 23.524 16.394 24.692L18.554 22.532C18.1911 21.9163 17.9998 21.2147 18 20.5C18 19.76 18.202 19.064 18.554 18.468L16.394 16.308ZM17.808 14.894L19.968 17.054C20.5837 16.6911 21.2853 16.4998 22 16.5C22.74 16.5 23.436 16.702 24.032 17.054L26.192 14.894C24.9818 13.989 23.5112 13.5 22 13.5C20.428 13.5 18.976 14.02 17.808 14.894ZM27.608 16.308L25.448 18.468C25.8108 19.0838 26.0019 19.7856 26.0016 20.5003C26.0012 21.215 25.8094 21.9166 25.446 22.532L27.606 24.692C28.482 23.524 29 22.072 29 20.5C29 18.928 28.482 17.476 27.608 16.308ZM26.19 26.108L24.03 23.948C23.4147 24.3098 22.7138 24.5004 22 24.5C21.26 24.5 20.564 24.298 19.968 23.946L17.808 26.106C18.976 26.982 20.428 27.5 22 27.5C23.572 27.5 25.024 26.98 26.192 26.106M13 20.5C13 19.3181 13.2328 18.1478 13.6851 17.0558C14.1374 15.9639 14.8003 14.9718 15.636 14.136C16.4718 13.3003 17.4639 12.6374 18.5558 12.1851C19.6478 11.7328 20.8181 11.5 22 11.5C23.1819 11.5 24.3522 11.7328 25.4442 12.1851C26.5361 12.6374 27.5282 13.3003 28.364 14.136C29.1997 14.9718 29.8626 15.9639 30.3149 17.0558C30.7672 18.1478 31 19.3181 31 20.5C31 22.8869 30.0518 25.1761 28.364 26.864C26.6761 28.5518 24.3869 29.5 22 29.5C19.6131 29.5 17.3239 28.5518 15.636 26.864C13.9482 25.1761 13 22.8869 13 20.5ZM20 20.5C20 21.0304 20.2107 21.5391 20.5858 21.9142C20.9609 22.2893 21.4696 22.5 22 22.5C22.5304 22.5 23.0391 22.2893 23.4142 21.9142C23.7893 21.5391 24 21.0304 24 20.5C24 19.9696 23.7893 19.4609 23.4142 19.0858C23.0391 18.7107 22.5304 18.5 22 18.5C21.4696 18.5 20.9609 18.7107 20.5858 19.0858C20.2107 19.4609 20 19.9696 20 20.5Z" fill="#F2EEEE"/>
</svg>
